<?xml version="1.0" encoding="UTF-8" standalone="no"?>
<svg
   xmlns:dc="http://purl.org/dc/elements/1.1/"
   xmlns:cc="http://creativecommons.org/ns#"
   xmlns:rdf="http://www.w3.org/1999/02/22-rdf-syntax-ns#"
   xmlns:svg="http://www.w3.org/2000/svg"
   xmlns="http://www.w3.org/2000/svg"
   xmlns:xlink="http://www.w3.org/1999/xlink"
   xmlns:sodipodi="http://sodipodi.sourceforge.net/DTD/sodipodi-0.dtd"
   xmlns:inkscape="http://www.inkscape.org/namespaces/inkscape"
   width="250"
   height="60"
   viewBox="0 0 250 60"
   version="1.1"
   id="svg35"
   sodipodi:docname="logowide.svg"
   inkscape:version="0.92.3 (2405546, 2018-03-11)">
  <metadata
     id="metadata39">
    <rdf:RDF>
      <cc:Work
         rdf:about="">
        <dc:format>image/svg+xml</dc:format>
        <dc:type
           rdf:resource="http://purl.org/dc/dcmitype/StillImage" />
        <dc:title>Jobsity Logo</dc:title>
      </cc:Work>
    </rdf:RDF>
  </metadata>
  <sodipodi:namedview
     pagecolor="#ffffff"
     bordercolor="#666666"
     borderopacity="1"
     objecttolerance="10"
     gridtolerance="10"
     guidetolerance="10"
     inkscape:pageopacity="0"
     inkscape:pageshadow="2"
     inkscape:window-width="3200"
     inkscape:window-height="1675"
     id="namedview37"
     showgrid="false"
     inkscape:zoom="4"
     inkscape:cx="30"
     inkscape:cy="29.5"
     inkscape:window-x="-13"
     inkscape:window-y="-13"
     inkscape:window-maximized="1"
     inkscape:current-layer="svg35" />
  <style
     id="stylish-3"
     class="stylish"
     type="text/css">@namespace url(http://www.w3.org/1999/xhtml);
@-moz-document domain(&quot;facebook.com&quot;) {
.uiSideNavSpinner { animation: none !important; }
}</style>
  <title
     id="title3">Jobsity Logo</title>
  <defs
     id="defs8">
    <path
       id="path-1"
       d="M 0,0.083 H 59.914 V 58.69 H 0 Z"
       inkscape:connector-curvature="0" />
    <path
       id="path-3"
       d="M 0,58.783 H 59.914 V 0.177 H 0 Z"
       inkscape:connector-curvature="0" />
    <path
       id="path-5"
       d="M 0.18,26.675 H 13.67 V 13.483 H 0.18 Z"
       inkscape:connector-curvature="0" />
  </defs>
  <g
     id="Page-1"
     style="fill:none;fill-rule:evenodd"
     transform="translate(0,1)">
    <g
       id="Jobsity-Logo-Dark">
      <g
         id="Jobsity-Logo">
        <g
           id="Group-3"
           transform="translate(0,0.094)">
          <mask
             id="mask-2"
             fill="#fff">
            <use
               xlink:href="#path-1"
               id="use10"
               x="0"
               y="0"
               width="100%"
               height="100%" />
          </mask>
          <path
             d="M 29.958,58.69 C 13.413,58.69 0,45.57 0,29.386 0,13.202 13.413,0.083 29.958,0.083 c 16.544,0 29.956,13.12 29.956,29.304 0,16.184 -13.412,29.302 -29.956,29.302 z"
             id="Fill-1"
             mask="url(#mask-2)"
             inkscape:connector-curvature="0"
             style="fill:#231f20" />
        </g>
        <path
           d="m 15.568,37.4 c 0,7.286 6.04,13.192 13.489,13.192 V 37.4 Z"
           id="Fill-4"
           inkscape:connector-curvature="0"
           style="fill:#17b5e9" />
        <path
           d="m 15.681,37.509 c 0.06,7.127 5.977,12.914 13.264,12.973 V 37.509 H 15.68 Z M 29.17,50.702 h -0.112 c -7.5,0 -13.6,-5.968 -13.6,-13.303 v -0.11 H 29.17 Z"
           id="Fill-6"
           inkscape:connector-curvature="0"
           style="fill:#17b5e9" />
        <mask
           id="mask-4"
           fill="#fff">
          <use
             xlink:href="#path-3"
             id="use17"
             x="0"
             y="0"
             width="100%"
             height="100%" />
        </mask>
        <g
           transform="translate(28.876,10.724)"
           id="Group-2"
           mask="url(#mask-4)">
          <g
             id="Fill-8">
            <use
               xlink:href="#path-5"
               id="use20"
               style="fill:#fcf8f3"
               x="0"
               y="0"
               width="100%"
               height="100%" />
            <path
               d="M 0.43,26.425 H 13.42 V 13.733 H 0.43 Z"
               id="path22"
               inkscape:connector-curvature="0"
               style="stroke:#fcf8f3;stroke-width:0.5" />
          </g>
          <path
             d="M 0.292,26.785 V 39.758 C 7.579,39.699 13.496,33.913 13.556,26.785 Z M 0.18,39.978 H 0.07 V 26.566 h 13.71 v 0.11 c 0,7.334 -6.101,13.302 -13.6,13.302 z"
             id="Fill-12"
             inkscape:connector-curvature="0"
             style="fill:#fcf8f3" />
          <path
             d="m 13.668,26.675 c 0,7.287 -6.039,13.193 -13.488,13.193 V 26.675 Z"
             id="Fill-11"
             inkscape:connector-curvature="0"
             style="fill:#fcf8f3;stroke:#fcf8f3;stroke-width:0.2" />
          <path
             id="Fill-13"
             d="M 0.18,13.483 H 13.67 V 0.29 H 0.18 Z"
             inkscape:connector-curvature="0"
             style="fill:#fcf8f3" />
          <path
             id="Fill-13-Copy"
             d="M 0.18,26.785 H 13.67 V 0.291 H 0.18 Z"
             inkscape:connector-curvature="0"
             style="fill:#fcf8f3" />
          <path
             d="M 0.292,26.566 H 13.557 V 13.592 H 0.292 Z M 0.068,26.785 H 13.781 V 13.373 H 0.068 Z"
             id="Fill-10"
             inkscape:connector-curvature="0"
             style="fill:#fcf8f3;stroke:#fcf8f3;stroke-width:0.2" />
          <path
             d="M 0.292,13.373 H 13.557 V 0.4 H 0.292 Z m -0.224,0.22 H 13.781 V 0.18 H 0.068 v 13.411 z"
             id="Fill-14"
             inkscape:connector-curvature="0"
             style="fill:#fcf8f3;stroke:#fcf8f3;stroke-width:0.2" />
        </g>
      </g>
    </g>
  </g>
  <g
     transform="translate(79.9235,16.77)"
     style="fill:none;fill-rule:evenodd"
     id="Page-1-4">
    <g
       style="fill:#231f20"
       id="Jobsity-Type">
      <path
         inkscape:connector-curvature="0"
         d="m 19.22,0.362 v 13.734 c 0,5.778 -2.925,9.843 -9.589,9.843 -6.596,0 -9.172,-3.793 -9.516,-9.534 l 6.494,-0.58 c 0.17,2.598 0.688,4.304 3.059,4.304 2.4,0 2.956,-1.742 2.956,-4.473 V 0.362 h 6.595 z"
         id="Fill-9" />
      <path
         inkscape:connector-curvature="0"
         d="m 35.086,17.788 c 3.3,0 5.567,-2.562 5.567,-5.777 0,-3.278 -2.266,-5.809 -5.567,-5.809 -3.26,0 -5.562,2.531 -5.562,5.809 0,3.215 2.302,5.777 5.562,5.777 M 35.056,0.02 c 6.904,0 12.054,5.127 12.054,11.99 0,6.801 -5.151,11.93 -12.056,11.93 -6.842,0 -11.994,-5.129 -11.994,-11.93 0,-6.862 5.153,-11.99 11.995,-11.99"
         id="Fill-10-0" />
      <path
         inkscape:connector-curvature="0"
         d="m 62.602,18.57 c 1.789,0 2.648,-0.782 2.648,-2.08 0,-1.368 -0.927,-2.118 -2.782,-2.118 H 57.79 V 18.57 Z M 61.024,9.315 c 1.717,0 2.61,-0.68 2.61,-1.984 0,-1.296 -0.858,-2.016 -2.575,-2.016 H 57.79 v 4 z m -9.83,-8.953 h 10.827 c 5.327,0 8.38,1.979 8.38,6.32 0,2.256 -1.167,3.866 -3.16,4.786 3.16,0.747 5.016,2.562 5.016,5.775 0,3.928 -3.09,6.354 -8.658,6.354 H 51.194 Z"
         id="Fill-11-8" />
      <path
         inkscape:connector-curvature="0"
         d="m 76.55,16.183 c 1.82,1.227 4.463,2.326 7.28,2.326 1.928,0 3.06,-0.585 3.06,-1.85 0,-0.816 -0.685,-1.333 -2.128,-1.74 l -3.708,-1.058 c -3.953,-1.13 -5.948,-3.114 -5.948,-6.494 0,-4.1 3.228,-7.312 9.486,-7.312 3.326,0 6.663,0.957 8.482,1.846 l -1.856,5.43 c -1.856,-1.022 -4.6,-1.845 -6.905,-1.845 -1.788,0 -2.54,0.582 -2.54,1.54 0,0.75 0.48,1.128 1.718,1.502 l 4.02,1.16 c 4.36,1.3 6.113,3.421 6.113,6.561 0,4.51 -3.881,7.69 -9.896,7.69 -3.502,0 -7.177,-1.166 -8.725,-2.013 l 1.548,-5.743 z"
         id="Fill-12-2" />
      <path
         inkscape:connector-curvature="0"
         id="Fill-13-5"
         d="m 97.676,23.597 h 6.595 V 0.362 h -6.595 z" />
      <path
         inkscape:connector-curvature="0"
         id="Fill-14-8"
         d="m 121.14,6.068 v 17.53 h -6.6 V 6.067 h -6.694 V 0.362 h 19.927 v 5.706 z" />
      <path
         inkscape:connector-curvature="0"
         id="Fill-15"
         d="M 137.248,14.848 128.56,0.807 V 0.362 h 7.351 l 4.638,8.472 4.637,-8.472 h 7.352 v 0.445 l -8.694,14.005 v 8.785 h -6.596 z" />
    </g>
  </g>
</svg>
