<svg width="153" height="24" viewBox="0 0 153 24" xmlns="http://www.w3.org/2000/svg"><style id="stylish-3" class="stylish" type="text/css">@namespace url(http://www.w3.org/1999/xhtml);
@-moz-document domain("facebook.com") {
.uiSideNavSpinner { animation: none !important; }
}</style><title>Jobsity Type</title><g id="Page-1" fill="none" fill-rule="evenodd"><g id="Jobsity-Type" fill="#231F20"><path d="M19.22.362v13.734c0 5.778-2.925 9.843-9.589 9.843-6.596 0-9.172-3.793-9.516-9.534l6.494-.58c.17 2.598.688 4.304 3.059 4.304 2.4 0 2.956-1.742 2.956-4.473V.362h6.595z" id="Fill-9"/><path d="M35.086 17.788c3.3 0 5.567-2.562 5.567-5.777 0-3.278-2.266-5.809-5.567-5.809-3.26 0-5.562 2.531-5.562 5.809 0 3.215 2.302 5.777 5.562 5.777M35.056.02C41.96.02 47.11 5.147 47.11 12.01c0 6.801-5.151 11.93-12.056 11.93-6.842 0-11.994-5.129-11.994-11.93C23.06 5.148 28.213.02 35.055.02" id="Fill-10"/><path d="M62.602 18.57c1.789 0 2.648-.782 2.648-2.08 0-1.368-.927-2.118-2.782-2.118H57.79v4.198h4.812zm-1.578-9.255c1.717 0 2.61-.68 2.61-1.984 0-1.296-.858-2.016-2.575-2.016H57.79v4h3.234zM51.194.362h10.827c5.327 0 8.38 1.979 8.38 6.32 0 2.256-1.167 3.866-3.16 4.786 3.16.747 5.016 2.562 5.016 5.775 0 3.928-3.09 6.354-8.658 6.354H51.194V.362z" id="Fill-11"/><path d="M76.55 16.183c1.82 1.227 4.463 2.326 7.28 2.326 1.928 0 3.06-.585 3.06-1.85 0-.816-.685-1.333-2.128-1.74l-3.708-1.058c-3.953-1.13-5.948-3.114-5.948-6.494 0-4.1 3.228-7.312 9.486-7.312 3.326 0 6.663.957 8.482 1.846l-1.856 5.43c-1.856-1.022-4.6-1.845-6.905-1.845-1.788 0-2.54.582-2.54 1.54 0 .75.48 1.128 1.718 1.502l4.02 1.16c4.36 1.3 6.113 3.421 6.113 6.561 0 4.51-3.881 7.69-9.896 7.69-3.502 0-7.177-1.166-8.725-2.013l1.548-5.743z" id="Fill-12"/><path id="Fill-13" d="M97.676 23.597h6.595V.362h-6.595z"/><path id="Fill-14" d="M121.14 6.068v17.53h-6.6V6.067h-6.694V.362h19.927v5.706z"/><path id="Fill-15" d="M137.248 14.848L128.56.807V.362h7.351l4.638 8.472 4.637-8.472h7.352v.445l-8.694 14.005v8.785h-6.596z"/></g></g></svg>